HIERARCHY
ROOT Hips
{
	OFFSET 0.000000 0.000000 0.000000
	CHANNELS 6 Xposition Yposition Zposition Zrotation Yrotation Xrotation 
	JOINT LHipJoint
	{
		OFFSET 0.000000 0.000000 0.000000
		CHANNELS 3 Zrotation Yrotation Xrotation
		JOINT LeftUpLeg
		{
			OFFSET 1.363060 -1.794630 0.839290
			CHANNELS 3 Zrotation Yrotation Xrotation
			JOINT LeftLeg
			{
				OFFSET 2.448110 -6.726130 0.000000
				CHANNELS 3 Zrotation Yrotation Xrotation
				JOINT LeftFoot
				{
					OFFSET 2.562200 -7.039590 0.000000
					CHANNELS 3 Zrotation Yrotation Xrotation
					JOINT LeftToeBase
					{
						OFFSET 0.157640 -0.433110 2.322550
						CHANNELS 3 Zrotation Yrotation Xrotation
						End Site
						{
							OFFSET 0.000000 0.000000 0.000000
						}
					}
				}
			}
		}
	}
	JOINT RHipJoint
	{
		OFFSET 0.000000 0.000000 0.000000
		CHANNELS 3 Zrotation Yrotation Xrotation
		JOINT RightUpLeg
		{
			OFFSET -1.305520 -1.794630 0.839290
			CHANNELS 3 Zrotation Yrotation Xrotation
			JOINT RightLeg
			{
				OFFSET -2.542530 -6.985550 0.000000
				CHANNELS 3 Zrotation Yrotation Xrotation
				JOINT RightFoot
				{
					OFFSET -2.568260 -7.056230 0.000000
					CHANNELS 3 Zrotation Yrotation Xrotation
					JOINT RightToeBase
					{
						OFFSET -0.164730 -0.452590 2.363150
						CHANNELS 3 Zrotation Yrotation Xrotation
						End Site
						{
							OFFSET 0.000000 0.000000 0.000000
						}
					}
				}
			}
		}
	}
	JOINT LowerBack
	{
		OFFSET 0.000000 0.000000 0.000000
		CHANNELS 3 Zrotation Yrotation Xrotation
		JOINT Spine
		{
			OFFSET 0.028270 2.035590 -0.193380
			CHANNELS 3 Zrotation Yrotation Xrotation
			JOINT Spine1
			{
				OFFSET 0.056720 2.048850 -0.042750
				CHANNELS 3 Zrotation Yrotation Xrotation
				JOINT Neck
				{
					OFFSET 0.000000 0.000000 0.000000
					CHANNELS 3 Zrotation Yrotation Xrotation
					JOINT Neck1
					{
						OFFSET -0.054170 1.746240 0.172020
						CHANNELS 3 Zrotation Yrotation Xrotation
						JOINT Head
						{
							OFFSET 0.104070 1.761360 -0.123970
							CHANNELS 3 Zrotation Yrotation Xrotation
							End Site
							{
								OFFSET 0.000000 0.000000 0.000000
							}
						}
					}
				}
				JOINT LeftShoulder
				{
					OFFSET 0.000000 0.000000 0.000000
					CHANNELS 3 Zrotation Yrotation Xrotation
					JOINT LeftArm
					{
						OFFSET 3.362410 1.200890 -0.311210
						CHANNELS 3 Zrotation Yrotation Xrotation
						JOINT LeftForeArm
						{
							OFFSET 4.983000 -0.000000 -0.000000
							CHANNELS 3 Zrotation Yrotation Xrotation
							JOINT LeftHand
							{
								OFFSET 3.483560 -0.000000 -0.000000
								CHANNELS 3 Zrotation Yrotation Xrotation
								JOINT LeftFingerBase
								{
									OFFSET 0.000000 0.000000 0.000000
									CHANNELS 3 Zrotation Yrotation Xrotation
									JOINT LeftHandIndex1
									{
										OFFSET 0.715260 -0.000000 -0.000000
										CHANNELS 3 Zrotation Yrotation Xrotation
										End Site
										{
											OFFSET 0.000000 0.000000 0.000000
										}
									}
								}
								JOINT LThumb
								{
									OFFSET 0.000000 0.000000 0.000000
									CHANNELS 3 Zrotation Yrotation Xrotation
									End Site
									{
										OFFSET 0.000000 0.000000 0.000000
									}
								}
							}
						}
					}
				}
				JOINT RightShoulder
				{
					OFFSET 0.000000 0.000000 0.000000
					CHANNELS 3 Zrotation Yrotation Xrotation
					JOINT RightArm
					{
						OFFSET -3.136600 1.374050 -0.404650
						CHANNELS 3 Zrotation Yrotation Xrotation
						JOINT RightForeArm
						{
							OFFSET -5.241900 -0.000000 -0.000000
							CHANNELS 3 Zrotation Yrotation Xrotation
							JOINT RightHand
							{
								OFFSET -3.444170 -0.000000 -0.000000
								CHANNELS 3 Zrotation Yrotation Xrotation
								JOINT RightFingerBase
								{
									OFFSET 0.000000 0.000000 0.000000
									CHANNELS 3 Zrotation Yrotation Xrotation
									JOINT RightHandIndex1
									{
										OFFSET -0.622530 -0.000000 -0.000000
										CHANNELS 3 Zrotation Yrotation Xrotation
										End Site
										{
											OFFSET 0.000000 0.000000 0.000000
										}
									}
								}
								JOINT RThumb
								{
									OFFSET 0.000000 0.000000 0.000000
									CHANNELS 3 Zrotation Yrotation Xrotation
									End Site
									{
										OFFSET 0.000000 0.000000 0.000000
									}
								}
							}
						}
					}
				}
			}
		}
	}
}
MOTION
Frames: 10
Frame Time: 0.016667
-1.707889 17.134759 24.184216 4.046650 6.710070 5.793003 -12.403447 -0.155646 2.604054 -3.796359 -15.308620 -10.580199 4.113127 -25.094748 -34.552119 -2.739941 -25.023724 38.873790 0.000000 0.000000 0.000000 12.805102 -2.494229 3.503353 -1.938961 -6.284396 3.800398 0.142588 -21.326810 31.717775 10.115738 -43.876571 34.472221 0.000000 0.000000 0.000000 4.394844 6.715695 -0.289683 -20.691033 10.198527 32.899990 3.987637 9.227792 -38.311775 22.472047 -9.068511 -12.585718 -9.375559 -0.878582 11.516702 0.000000 0.000000 0.000000 13.554760 -9.708403 11.822671 -78.532073 -6.202460 28.275211 -15.592881 -75.241753 0.960863 -0.431869 -10.307016 0.481634 -0.476825 -10.322686 0.000000 0.000000 0.000000 0.000000 0.000000 0.000000 0.000000 -22.508480 11.439812 -60.314054 -149.683157 -79.301413 60.899435 -127.053360 80.913231 -175.930686 6.802158 -88.592102 -18.211828 44.428916 -72.803039 0.000000 0.000000 0.000000 0.000000 0.000000 0.000000 0.000000 
-1.722501 17.161472 24.372492 4.304264 5.351624 5.295026 -11.904687 0.309649 2.627876 -4.783635 -14.764483 -9.866533 4.724634 -24.445821 -35.014298 -2.374556 -25.051526 38.086883 0.000000 0.000000 0.000000 12.898558 -2.814435 4.561441 -2.641513 -5.906323 3.530770 -0.071896 -20.734375 31.707447 9.839426 -44.870969 35.420658 0.000000 0.000000 0.000000 3.909618 5.684063 -2.478411 -22.012003 9.627795 34.142359 6.226470 9.610636 -32.627440 26.037788 -8.571335 -14.404786 -8.403365 -0.958730 10.635735 0.000000 0.000000 0.000000 15.762644 -6.504620 9.912126 -78.075515 -7.160561 26.554278 -15.213716 -75.715517 0.901969 -0.268520 -10.371359 0.451688 -0.305648 -10.385722 0.000000 0.000000 0.000000 0.000000 0.000000 0.000000 0.000000 -26.600278 15.300509 -51.266834 -134.413077 -74.702208 70.035868 -101.949211 44.494879 -174.890385 3.878497 -84.987478 -20.059203 42.676123 -68.551132 0.000000 0.000000 0.000000 0.000000 0.000000 0.000000 0.000000 
-1.734528 17.189471 24.557079 4.587863 4.664462 4.910474 -11.377032 0.410764 2.591540 -5.777125 -14.436827 -8.986838 5.271891 -23.658234 -35.331349 -2.107211 -25.148605 37.364504 0.000000 0.000000 0.000000 12.958240 -3.360457 5.551212 -3.220073 -5.648132 3.156067 -0.115474 -20.206169 31.607337 9.491239 -45.805319 36.327185 0.000000 0.000000 0.000000 3.351286 5.895247 -4.229636 -23.811037 10.463229 36.129436 9.884186 10.937156 -28.230182 28.941429 -7.893853 -18.018920 -7.635704 -0.988594 9.458200 0.000000 0.000000 0.000000 16.700277 -5.164357 7.385997 -78.795153 -9.374143 25.677743 -15.054112 -75.976984 0.876602 -0.213893 -10.360756 0.438836 -0.248122 -10.374470 0.000000 0.000000 0.000000 0.000000 0.000000 0.000000 0.000000 -26.735928 19.118899 -45.704635 -120.969878 -65.742811 70.530081 -94.737391 9.096744 -175.389034 -1.123731 -79.605557 -23.732949 40.545707 -61.902256 -0.000000 0.000000 0.000000 0.000000 0.000000 0.000000 0.000000 
-1.743609 17.218305 24.737338 5.024103 4.972208 4.924757 -10.909713 -0.085689 2.450164 -6.808383 -14.452878 -7.874018 5.813631 -22.735228 -35.387983 -1.891540 -25.379113 36.451969 0.000000 0.000000 0.000000 12.987298 -4.125038 6.344173 -3.627939 -5.535616 2.587513 0.107234 -19.774285 31.384255 9.097005 -46.661854 37.204071 0.000000 0.000000 0.000000 3.052190 7.640775 -4.877143 -24.841438 12.537265 37.421224 11.557993 12.410077 -26.476856 29.023227 -7.905711 -20.961579 -7.828272 -0.954391 8.704926 0.000000 0.000000 0.000000 15.773082 -8.077189 5.690857 -80.090637 -12.047200 25.916297 -15.222594 -75.558144 0.890848 -0.301588 -10.195399 0.446235 -0.339006 -10.209279 0.000000 0.000000 0.000000 0.000000 0.000000 0.000000 0.000000 -23.245394 22.310134 -49.245006 -116.304917 -61.573110 59.763976 -99.939022 0.562257 -175.995783 -4.194317 -75.242042 -25.846577 38.923744 -57.035873 0.000000 0.000000 0.000000 0.000000 0.000000 0.000000 0.000000 
-1.749141 17.247548 24.913230 5.526191 5.599232 5.527564 -10.455255 -1.008717 2.003511 -7.919815 -14.753514 -6.756786 6.425173 -21.601933 -35.326533 -1.666520 -25.690479 35.341603 0.000000 0.000000 0.000000 13.013324 -4.777598 6.758145 -3.919320 -5.428229 1.847212 0.454841 -19.362449 31.133660 8.667844 -47.428539 38.057556 0.000000 0.000000 0.000000 2.997536 9.762300 -4.077644 -24.480222 14.404164 36.567651 9.712671 13.420329 -26.876901 27.277807 -8.858965 -22.737271 -8.581675 -0.930294 8.553778 0.000000 0.000000 0.000000 14.707995 -13.239470 5.270377 -80.816890 -14.002354 26.966690 -15.647327 -74.826481 0.935522 -0.511775 -9.927657 0.469135 -0.556690 -9.942287 0.000000 0.000000 0.000000 0.000000 0.000000 0.000000 0.000000 -20.951018 26.009077 -57.760156 -123.218351 -63.096135 39.560572 -95.214945 -1.804204 -175.831379 -4.525721 -72.631420 -25.615464 37.825999 -54.979962 0.000000 0.000000 0.000000 0.000000 0.000000 0.000000 0.000000 
-1.751619 17.276841 25.084224 6.383274 6.544799 7.282347 -10.252646 -2.559957 0.936198 -9.248488 -15.401721 -5.806488 7.149423 -20.213370 -35.151152 -1.412569 -26.059374 34.043731 0.000000 0.000000 0.000000 12.846076 -5.172876 6.444858 -4.117665 -5.295610 0.807082 0.967348 -19.000524 30.874800 8.212708 -48.101216 38.880746 0.000000 0.000000 0.000000 4.032436 12.313511 -0.641471 -21.638940 15.536041 31.261549 0.899184 13.410365 -30.631258 22.381637 -12.058558 -23.003277 -10.227676 -0.961186 9.446278 0.000000 0.000000 0.000000 13.642105 -22.047951 6.971088 -79.285923 -14.685898 29.153387 -16.386304 -73.879847 1.017526 -0.854841 -9.626014 0.510928 -0.911559 -9.642111 0.000000 0.000000 0.000000 0.000000 0.000000 0.000000 0.000000 -22.265617 30.608226 -74.573217 -149.869778 -79.395147 -4.523050 -80.703164 -13.207309 -174.275305 -2.178639 -73.311044 -22.936082 37.114280 -57.108262 -0.000000 0.000000 0.000000 0.000000 0.000000 0.000000 0.000000 
-1.751375 17.305912 25.250467 7.300819 5.037368 9.125745 -10.054155 -3.372475 -0.125462 -10.790104 -15.960355 -5.305063 8.228424 -18.364859 -35.412866 -0.947291 -26.290242 32.393101 0.000000 0.000000 0.000000 12.472147 -4.646612 5.947707 -4.792241 -4.733575 -0.001205 0.966466 -18.321520 30.927521 7.783329 -48.672884 39.720733 0.000000 0.000000 0.000000 5.812228 10.908851 2.646529 -17.500451 12.130194 23.885165 -9.931201 9.646414 -33.269839 18.646198 -15.655195 -21.363590 -10.813606 -1.089426 10.880725 0.000000 0.000000 0.000000 14.557067 -21.093444 9.322574 -73.235735 -11.427967 29.620300 -16.865128 -74.415380 1.035941 -1.065906 -9.494194 0.520164 -1.124627 -9.510691 0.000000 0.000000 0.000000 0.000000 0.000000 0.000000 0.000000 -31.821366 28.592782 -75.642160 -19.374635 -63.713381 111.492160 -77.400796 -7.195876 -171.718772 0.146080 -84.792116 -20.854105 38.246834 -67.818427 0.000000 0.000000 0.000000 0.000000 0.000000 0.000000 0.000000 
-1.749095 17.334555 25.412107 6.296847 -1.563002 12.343237 -8.488066 -2.457532 -2.214507 -12.498536 -16.308294 -6.115856 9.936444 -15.832293 -36.565818 -0.059939 -26.183209 29.957559 0.000000 0.000000 0.000000 13.194388 -1.565155 4.182827 -5.858014 -3.182054 -0.835113 -0.131080 -17.065664 31.625446 7.384983 -49.169073 40.592562 0.000000 0.000000 0.000000 4.460090 0.357349 10.082368 -11.493264 -1.666665 9.082268 -26.573454 -3.102023 -21.370382 27.771762 -10.937320 -30.988197 -4.999972 -1.190266 10.515866 0.000000 0.000000 0.000000 23.177400 11.599066 4.015881 -62.537937 -5.164446 28.492081 -17.222196 -79.302515 1.017354 -1.206137 -9.856322 0.510039 -1.258442 -9.873328 0.000000 0.000000 0.000000 0.000000 0.000000 0.000000 0.000000 -72.392202 27.321508 -1.122791 134.969341 -56.013884 -128.579698 -126.829429 -77.986690 -177.180691 -167.371791 -77.862819 171.282680 -138.327792 -89.387927 -180.000000 0.000000 0.000000 0.000000 0.000000 0.000000 0.000000 
-1.745152 17.362681 25.569363 6.885946 -0.243133 7.420534 -8.083187 -2.426148 0.529643 -12.979186 -16.812169 -3.456763 10.143262 -14.253143 -36.389386 -0.057778 -26.286605 29.833316 0.000000 0.000000 0.000000 12.648172 -4.405721 8.205969 -6.081010 -3.105346 -0.434894 -0.066979 -16.333205 31.400566 6.935231 -49.618446 41.417621 0.000000 0.000000 0.000000 3.469190 5.234749 -3.324579 -15.381328 5.301659 20.585726 -0.181459 2.669457 -29.443453 20.205721 -24.479299 -7.132087 -12.903080 -2.034447 11.196333 0.000000 0.000000 0.000000 4.244181 -4.147015 13.622918 -66.855238 -0.402324 20.453456 -15.159399 -74.654594 0.666484 -0.088652 -9.495580 0.332808 -0.102497 -9.505564 0.000000 0.000000 0.000000 0.000000 0.000000 0.000000 0.000000 -21.303169 24.373180 -75.865784 172.743787 -60.753022 15.509320 173.819572 -86.888308 -161.606382 -172.994514 -86.216883 164.215296 38.623597 -77.823715 -0.000000 0.000000 0.000000 0.000000 0.000000 0.000000 0.000000 
-1.740099 17.390259 25.722776 7.281519 0.421673 10.264030 -7.549024 -4.189547 -1.224784 -14.662426 -18.251654 -2.583675 11.116018 -12.097094 -36.211220 0.272789 -26.617400 28.357166 0.000000 0.000000 0.000000 12.772867 -4.360527 7.391701 -5.853446 -2.568210 -2.025756 0.408566 -15.889751 31.312504 6.363003 -50.091922 42.188265 0.000000 0.000000 0.000000 3.892163 7.188610 2.136676 -15.761324 9.719716 40.522265 -5.421916 6.296190 -1.008237 24.143168 -7.894257 -62.597548 -3.615546 -0.410728 -1.844987 0.000000 0.000000 0.000000 10.060104 11.663762 -15.242646 -74.761368 -22.856933 29.364652 -17.320512 -83.507950 1.009622 -1.120067 -10.176472 0.505957 -1.170070 -10.193353 0.000000 0.000000 0.000000 0.000000 0.000000 0.000000 0.000000 -32.407877 66.862358 8.553527 121.169735 0.050701 -21.437290 -32.001552 -0.540519 28.039772 179.149419 -82.038093 161.051980 34.391030 -79.220123 -0.000000 0.000000 0.000000 0.000000 0.000000 0.000000 0.000000 
